<?xml version="1.0" encoding="utf-8" ?>
<svg xmlns="http://www.w3.org/2000/svg" xmlns:xlink="http://www.w3.org/1999/xlink" width="1600" height="1600">
	<path fill="#181815" d="M-0 -0L1600 0L1600 1600L-0 1600L0 -0Z"/>
	<path fill="#F4D8A6" d="M456.828 689.538C460.791 674.937 464.865 660.417 470.651 646.409C492.241 594.134 528.622 548.557 572.269 512.943C584.508 502.957 596.937 492.917 610.674 485.06C632.696 472.464 654.883 460.767 678.906 452.398C728.896 434.984 782.613 430.053 835.156 434.838C854.202 436.572 873.15 439.001 891.643 444.047C909.566 448.937 927.372 454.399 944.476 461.708C996.273 483.841 1043.43 519.223 1079.08 562.839C1093.49 580.472 1105.5 599.272 1116.76 619.025C1130.76 643.591 1139.29 670.234 1145.76 697.629C1141.08 702.595 1136.5 707.507 1132.55 713.09C1127.48 720.265 1123.03 728.145 1117.08 734.636C1108.22 688.937 1094.64 647.308 1068.42 608.496C1022.52 540.55 946.771 489.479 866.129 474.087C776.874 457.05 688.59 474.625 613.515 525.959C561.526 561.508 518.946 615.631 497.733 675.002C491.221 693.229 487.21 711.922 483.624 730.901C479.21 727.033 477.305 719.199 474.141 714.226C468.626 705.56 461.716 698.851 456.828 689.538Z"/>
	<path fill="#CAA97C" d="M456.828 689.538C461.716 698.851 468.626 705.56 474.141 714.226C477.305 719.199 479.21 727.033 483.624 730.901C484.131 735.624 486.556 740.589 488.582 744.849C493.21 754.584 499.019 763.669 504.751 772.776C515.152 789.302 525.304 806.035 536.924 821.75C548.479 837.376 561.336 851.562 574.357 865.961C599.755 894.049 626.413 920.572 655.931 944.348C676.547 960.954 698.383 976.064 720.366 990.785C746.29 1008.14 772.481 1024.68 800.184 1039.08L897.491 976.498C935.367 950.266 970.508 920.619 1003.59 888.599C1014.48 878.054 1025.8 867.478 1035.83 856.107C1055.31 834.038 1073.21 809.637 1089.29 784.978L1110.53 749.239C1112.56 745.526 1116.34 739.803 1117.04 735.612L1117.08 734.636C1123.03 728.145 1127.48 720.265 1132.55 713.09C1136.5 707.507 1141.08 702.595 1145.76 697.629L1149.84 720.736C1152 737.774 1152.42 754.861 1152.4 772.016C1152.37 795.11 1151.2 818.36 1146.57 841.04C1126.64 938.586 1072.59 1021.64 989.396 1076.74C932.119 1114.67 860.74 1136.09 792.021 1134.29C772.476 1133.78 752.952 1130.97 733.817 1127.06C704.2 1120.99 674.984 1111.87 647.802 1098.54C634.014 1091.78 621.066 1083.41 608.377 1074.8C570.431 1049.04 535.68 1016.24 510.445 977.771C489.587 945.972 472.229 910.817 461.672 874.217C444.527 814.773 444.375 749.815 456.828 689.538Z"/>
	<path fill="#181815" d="M483.624 730.901C487.21 711.922 491.221 693.229 497.733 675.002C518.946 615.631 561.526 561.508 613.515 525.959C688.59 474.625 776.874 457.05 866.129 474.087C946.771 489.479 1022.52 540.55 1068.42 608.496C1094.64 647.308 1108.22 688.937 1117.08 734.636L1117.04 735.612C1116.34 739.803 1112.56 745.526 1110.53 749.239L1089.29 784.978C1073.21 809.637 1055.31 834.038 1035.83 856.107C1025.8 867.478 1014.48 878.054 1003.59 888.599C970.508 920.619 935.367 950.266 897.491 976.498L800.184 1039.08C772.481 1024.68 746.29 1008.14 720.366 990.785C698.383 976.064 676.547 960.954 655.931 944.348C626.413 920.572 599.755 894.049 574.357 865.961C561.336 851.562 548.479 837.376 536.924 821.75C525.304 806.035 515.152 789.302 504.751 772.776C499.019 763.669 493.21 754.584 488.582 744.849C486.556 740.589 484.131 735.624 483.624 730.901Z"/>
	<path fill="#F4D8A6" d="M800.909 511.96L832.13 541.117C848.354 556.317 865.281 571.021 878.873 588.721C896.265 611.37 909.837 641.677 905.835 670.921C901.986 699.053 886.729 721.217 868.006 741.854C862.088 748.378 855.919 755.329 849.192 761.01C847.266 756.336 845.525 751.316 842.952 746.971C832.657 729.592 815.967 713.911 802.455 698.882C801.235 697.83 801.115 697.99 799.609 697.759L774.308 724.065C764.868 734.755 756.923 746.404 749.465 758.532L732.449 741.603C710.245 718.234 694.165 690.737 695.184 657.763C695.94 633.325 706.529 608.11 721.7 589.155C732.331 575.873 745.37 564.456 757.712 552.793L800.909 511.96Z"/>
	<path fill="#F4D8A6" d="M652.742 644.141L655.182 643.996C656.698 652.861 655.098 662.866 655.671 671.949C656.718 688.572 661.458 704.072 667.937 719.326C685.131 759.81 714.914 793.639 748.588 821.357L777.103 844.191C784.324 849.558 791.792 854.026 798.592 860.029L862.583 808.425C872.789 800.011 881.753 790.267 890.485 780.366C913.865 753.861 933.294 723.868 942.675 689.453C946.655 674.851 948.018 659.801 949.45 644.791C977.324 664.781 1006.02 693.322 1015.08 727.309C1023.18 757.74 1012.5 786.957 997.52 813.2C993.343 820.91 987.94 827.759 982.603 834.686C959.479 864.701 929.006 888.227 898.438 910.166L840.266 951.96L800.891 979.61C756.724 949.497 712.429 920.726 671.071 886.695C650.646 869.889 629.963 851.983 614.216 830.559C594.691 803.994 579.699 771.285 585.009 737.543C591.406 696.888 620.925 667.392 652.742 644.141Z"/>
</svg>
